<svg width="505" height="113" viewBox="0 0 505 113" fill="none" xmlns="http://www.w3.org/2000/svg">
<g clip-path="url(#clip0_3_152)">
<path fill-rule="evenodd" clip-rule="evenodd" d="M504.466 31.329L7.63986 0L0.465581 52.0693L497.291 83.3982L504.466 31.329Z" fill="url(#paint0_linear_3_152)"/>
<path fill-rule="evenodd" clip-rule="evenodd" d="M504.466 31.329L7.63986 0L0.465581 52.0693L497.291 83.3982L504.466 31.329Z" fill="black" fill-opacity="0.2"/>
<path d="M498.107 78.1715L1.12708 45.9807L-6.96301e-06 53.9443L496.98 86.1351L498.107 78.1715Z" fill="#4D4D4D"/>
<path d="M251.835 111.356V98.4435H255.579V111.356H251.835ZM253.707 96.6435C253.019 96.6435 252.459 96.4435 252.027 96.0435C251.595 95.6435 251.379 95.1475 251.379 94.5555C251.379 93.9635 251.595 93.4675 252.027 93.0675C252.459 92.6675 253.019 92.4675 253.707 92.4675C254.395 92.4675 254.955 92.6595 255.387 93.0435C255.819 93.4115 256.035 93.8915 256.035 94.4835C256.035 95.1075 255.819 95.6275 255.387 96.0435C254.971 96.4435 254.411 96.6435 253.707 96.6435Z" fill="white"/>
<path fill-rule="evenodd" clip-rule="evenodd" d="M230.077 67.2634C231.115 66.824 232.577 67.1386 233.342 67.9662L250.438 86.4491C251.203 87.2766 250.982 88.3037 249.944 88.7432C248.906 89.1826 247.444 88.868 246.679 88.0405L229.583 69.5575C228.817 68.73 229.038 67.7029 230.077 67.2634Z" fill="white"/>
</g>
<defs>
<linearGradient id="paint0_linear_3_152" x1="259.995" y1="15.9133" x2="255.638" y2="80.9565" gradientUnits="userSpaceOnUse">
<stop stop-color="#73B2D2"/>
<stop offset="1" stop-color="#83EBDF"/>
</linearGradient>
<clipPath id="clip0_3_152">
<rect width="504.466" height="112.356" fill="white"/>
</clipPath>
</defs>
</svg>
