<svg width="486" height="239" viewBox="0 0 486 239" fill="none" xmlns="http://www.w3.org/2000/svg">
<g clip-path="url(#clip0_2_120)">
<path fill-rule="evenodd" clip-rule="evenodd" d="M467.08 24.895H18.95L130.982 178.364H355.047L467.08 24.895Z" fill="url(#paint0_linear_2_120)"/>
<path fill-rule="evenodd" clip-rule="evenodd" d="M467.08 24.895H18.95L130.982 178.364H355.047L467.08 24.895Z" fill="black" fill-opacity="0.2"/>
<path d="M355.046 170.318H131.003V178.364H355.046V170.318Z" fill="#4D4D4D"/>
<path fill-rule="evenodd" clip-rule="evenodd" d="M137.089 173.525L130.661 178.365L0 4.84L6.428 0L137.089 173.525Z" fill="#4D4D4D"/>
<path fill-rule="evenodd" clip-rule="evenodd" d="M348.716 173.525L355.144 178.365L485.805 4.84L479.377 0L348.716 173.525Z" fill="#4D4D4D"/>
<path d="M243.977 229.192C242.841 229.192 241.865 228.952 241.049 228.472C240.233 227.992 239.609 227.264 239.177 226.288C238.745 225.296 238.529 224.048 238.529 222.544C238.529 221.024 238.753 219.776 239.201 218.8C239.665 217.824 240.305 217.096 241.121 216.616C241.937 216.136 242.889 215.896 243.977 215.896C245.193 215.896 246.281 216.168 247.241 216.712C248.217 217.256 248.985 218.024 249.545 219.016C250.121 220.008 250.409 221.184 250.409 222.544C250.409 223.888 250.121 225.056 249.545 226.048C248.985 227.04 248.217 227.816 247.241 228.376C246.281 228.92 245.193 229.192 243.977 229.192ZM236.345 229V211.192H240.089V218.704L239.849 222.52L239.921 226.36V229H236.345ZM243.329 226.12C243.953 226.12 244.505 225.976 244.985 225.688C245.481 225.4 245.873 224.992 246.161 224.464C246.465 223.92 246.617 223.28 246.617 222.544C246.617 221.792 246.465 221.152 246.161 220.624C245.873 220.096 245.481 219.688 244.985 219.4C244.505 219.112 243.953 218.968 243.329 218.968C242.705 218.968 242.145 219.112 241.649 219.4C241.153 219.688 240.761 220.096 240.473 220.624C240.185 221.152 240.041 221.792 240.041 222.544C240.041 223.28 240.185 223.92 240.473 224.464C240.761 224.992 241.153 225.4 241.649 225.688C242.145 225.976 242.705 226.12 243.329 226.12Z" fill="white"/>
<path d="M387.318 113.164L377.176 105.173L379.389 102.364L382.16 104.548L380.933 104.437C380.519 103.54 380.389 102.633 380.542 101.715C380.692 100.774 381.094 99.8888 381.748 99.0593C382.481 98.1293 383.358 97.5068 384.38 97.1919C385.4 96.8544 386.483 96.9538 387.629 97.49L386.529 98.3041C386.004 97.3409 385.802 96.3054 385.921 95.1976C386.05 94.0771 386.496 93.033 387.258 92.0653C387.892 91.2609 388.615 90.6796 389.427 90.3212C390.236 89.9403 391.113 89.8364 392.056 90.0093C392.997 90.1597 393.982 90.6409 395.013 91.4528L400.819 96.0275L398.502 98.9684L393.148 94.7502C392.331 94.1066 391.594 93.801 390.937 93.8333C390.28 93.8657 389.709 94.1898 389.224 94.8056C388.887 95.2329 388.686 95.6955 388.62 96.1933C388.541 96.6811 388.622 97.1728 388.863 97.6683C389.104 98.1637 389.526 98.6491 390.13 99.1244L395.22 103.135L392.903 106.076L387.549 101.857C386.732 101.214 385.995 100.908 385.338 100.941C384.691 100.96 384.125 101.278 383.639 101.894C383.303 102.321 383.101 102.784 383.035 103.282C382.956 103.769 383.037 104.261 383.278 104.757C383.52 105.252 383.942 105.737 384.545 106.213L389.635 110.223L387.318 113.164Z" fill="white"/>
<path d="M239.902 108.569L222.094 108.569L222.094 104.825L230.566 104.825L229.486 105.665C228.622 105.201 227.958 104.537 227.494 103.673C227.03 102.809 226.798 101.825 226.798 100.721C226.798 99.6969 227.006 98.7849 227.422 97.9849C227.822 97.1689 228.446 96.5289 229.294 96.0649C230.126 95.6009 231.198 95.3689 232.51 95.3689L239.902 95.3689L239.902 99.1129L233.086 99.1129C232.046 99.1129 231.278 99.3449 230.782 99.8089C230.286 100.257 230.038 100.897 230.038 101.729C230.038 102.321 230.166 102.857 230.422 103.337C230.662 103.801 231.038 104.169 231.55 104.441C232.062 104.697 232.718 104.825 233.518 104.825L239.902 104.825L239.902 108.569Z" fill="white"/>
<path d="M134.146 236.96V179.936C134.146 179.069 133.442 178.365 132.574 178.365C131.707 178.365 131.003 179.069 131.003 179.936V236.96C131.003 237.828 131.707 238.532 132.574 238.532C133.442 238.532 134.146 237.828 134.146 236.96Z" fill="white"/>
<path d="M245.902 32H242.902V163H245.902V32Z" fill="white"/>
<path d="M355.047 236.96V179.936C355.047 179.069 354.343 178.365 353.475 178.365C352.608 178.365 351.904 179.069 351.904 179.936V236.96C351.904 237.828 352.608 238.532 353.475 238.532C354.343 238.532 355.047 237.828 355.047 236.96Z" fill="white"/>
<path fill-rule="evenodd" clip-rule="evenodd" d="M140.902 233H344.902V236H140.902V233Z" fill="white"/>
<path d="M133.902 234.5L141.402 230.603L141.402 238.397L133.902 234.5Z" fill="white"/>
<path d="M351.902 234.5L344.402 230.603L344.402 238.397L351.902 234.5Z" fill="white"/>
<path d="M244.402 25L248.3 32.5H240.505L244.402 25Z" fill="white"/>
<path d="M244.402 170L248.3 162.5H240.505L244.402 170Z" fill="white"/>
</g>
<defs>
<linearGradient id="paint0_linear_2_120" x1="246.571" y1="24.8954" x2="245" y2="178.365" gradientUnits="userSpaceOnUse">
<stop stop-color="#73B2D2"/>
<stop offset="1" stop-color="#83EBDF"/>
</linearGradient>
<clipPath id="clip0_2_120">
<rect width="485.805" height="239" fill="white"/>
</clipPath>
</defs>
</svg>
